<?xml version="1.0"?>
<svg xmlns="http://www.w3.org/2000/svg" xmlns:xlink="http://www.w3.org/1999/xlink" xmlns:svgjs="http://svgjs.com/svgjs" version="1.1" width="512" height="512" x="0" y="0" viewBox="0 0 512 512" style="enable-background:new 0 0 512 512" xml:space="preserve" class=""><g><path xmlns="http://www.w3.org/2000/svg" d="m165.160156 512h-148.644531c-9.121094 0-16.515625-7.394531-16.515625-16.515625s7.394531-16.515625 16.515625-16.515625h148.644531c9.121094 0 16.515625 7.394531 16.515625 16.515625s-7.394531 16.515625-16.515625 16.515625zm0 0" fill="#ffffff" data-original="#000000" style="" class=""/><path xmlns="http://www.w3.org/2000/svg" d="m132.128906 462.453125h-115.613281c-9.121094 0-16.515625-7.398437-16.515625-16.519531s7.394531-16.515625 16.515625-16.515625h115.613281c9.121094 0 16.515625 7.394531 16.515625 16.515625s-7.394531 16.519531-16.515625 16.519531zm0 0" fill="#ffffff" data-original="#000000" style="" class=""/><path xmlns="http://www.w3.org/2000/svg" d="m66.066406 412.902344h-49.550781c-9.121094 0-16.515625-7.394532-16.515625-16.515625 0-9.121094 7.394531-16.515625 16.515625-16.515625h49.550781c9.121094 0 16.515625 7.394531 16.515625 16.515625 0 9.121093-7.394531 16.515625-16.515625 16.515625zm0 0" fill="#ffffff" data-original="#000000" style="" class=""/><path xmlns="http://www.w3.org/2000/svg" d="m247.742188 50.382812v-17.351562h16.515624c9.121094 0 16.515626-7.394531 16.515626-16.515625s-7.394532-16.515625-16.515626-16.515625h-66.0625c-9.121093 0-16.519531 7.394531-16.519531 16.515625s7.398438 16.515625 16.519531 16.515625h16.515626v17.351562c-119.789063 8.53125-214.710938 108.464844-214.710938 230.390626 0 9.121093 7.394531 16.515624 16.515625 16.515624s16.515625-7.394531 16.515625-16.515624c0-109.28125 88.910156-198.191407 198.195312-198.191407 109.28125 0 198.191407 88.910157 198.191407 198.191407 0 109.285156-88.910157 198.195312-198.191407 198.195312-9.121093 0-16.515624 7.394531-16.515624 16.515625s7.394531 16.515625 16.515624 16.515625c127.5 0 231.226563-103.726562 231.226563-231.226562 0-121.925782-94.921875-221.859376-214.710937-230.390626zm0 0" fill="#ffffff" data-original="#000000" style="" class=""/><path xmlns="http://www.w3.org/2000/svg" d="m234.539062 310.476562c8.855469-.453124 17.15625-4.644531 22.757813-11.5l94.652344-115.683593c5.375-6.566407 4.894531-16.136719-1.101563-22.140625-6.019531-6.023438-15.574218-6.484375-22.140625-1.101563l-115.675781 94.644531c-6.863281 5.613282-11.054688 13.910157-11.507812 22.765626-.445313 8.863281 2.894531 17.546874 9.167968 23.832031.007813.007812.007813.007812.015625.015625 5.902344 5.902344 13.945313 9.210937 22.25 9.210937.527344-.003906 1.050781-.019531 1.582031-.042969zm0 0" fill="#ffffff" data-original="#000000" style="" class=""/></g></svg>
